# xmcd CD database file
#
# Track frame offsets:
#	150
#	20555
#	36447
#	56304
#	72423
#	92477
#	107131
#	126467
#	141395
#	153492
#	173798
#	191986
#	211594
#
# Disc length: 2958 seconds
#
# Revision: 0
# Processed by: cddbd v1.4PL0 Copyright (c) Steve Scherf et al.
# Submitted via: Feurio! 1.66 - http://www.feurio.com
#
DISCID=be0b8c0d
DTITLE=Various Artist - The Very Best of Country  CD 2(2)
DYEAR=1900
DGENRE=country
TTITLE0=Steve Earl - Copperhead Road
TTITLE1=Calexico - The Ballad Of Cable Hogue
TTITLE2=The Mavericks - Dance The Night Away
TTITLE3=Ryan Adams - When The Stars Go Blue
TTITLE4=Lambchop - Saturday Option
TTITLE5=Shelby Lynne - Leavin'
TTITLE6=Cowboy Junkies - Cause Cheap Is How I Feel
TTITLE7=Lucinda Williams - Steal Your Love
TTITLE8=Whiskeytown - Houses On The Hill
TTITLE9=Allison Moorer - Hey Jazebel
TTITLE10=Be Good Tanyas - Rain And Snow
TTITLE11=Son Volt - Tear Stained Eyes
TTITLE12=Stanley Brothers - Angel Band
EXTD=
EXTT0=
EXTT1=
EXTT2=
EXTT3=
EXTT4=
EXTT5=
EXTT6=
EXTT7=
EXTT8=
EXTT9=
EXTT10=
EXTT11=
EXTT12=
PLAYORDER=
